<?xml version="1.0" encoding="UTF-8"?>
<svg width="58px" height="28px" viewBox="0 0 58 28" version="1.1" xmlns="http://www.w3.org/2000/svg" xmlns:xlink="http://www.w3.org/1999/xlink">
    <!-- Generator: Sketch 50 (54983) - http://www.bohemiancoding.com/sketch -->
    <title>EC</title>
    <desc>Created with Sketch.</desc>
    <defs>
        <filter x="-1.9%" y="-9.3%" width="103.7%" height="114.4%" filterUnits="objectBoundingBox" id="filter-1">
            <feOffset dx="0" dy="-2" in="SourceAlpha" result="shadowOffsetOuter1"></feOffset>
            <feGaussianBlur stdDeviation="2" in="shadowOffsetOuter1" result="shadowBlurOuter1"></feGaussianBlur>
            <feColorMatrix values="0 0 0 0 0   0 0 0 0 0   0 0 0 0 0  0 0 0 0.173884737 0" type="matrix" in="shadowBlurOuter1" result="shadowMatrixOuter1"></feColorMatrix>
            <feMerge>
                <feMergeNode in="shadowMatrixOuter1"></feMergeNode>
                <feMergeNode in="SourceGraphic"></feMergeNode>
            </feMerge>
        </filter>
    </defs>
    <g id="Page-1" stroke="none" stroke-width="1" fill="none" fill-rule="evenodd">
        <g id="explore" transform="translate(-159.000000, -629.000000)" fill="#000000">
            <g id="foot-" filter="url(#filter-1)" transform="translate(0.000000, 619.000000)">
                <g id="china" transform="translate(152.000000, 0.000000)">
                    <g id="EC" transform="translate(11.000000, 14.000000)">
                        <g id="CHINA-" transform="translate(0.000000, 10.000000)" fill-rule="nonzero">
                            <path d="M8.99553191,9.08 C8.97880686,9.06896788 8.96364628,9.05550136 8.9505,9.04 C8.92425035,9.03503775 8.89758804,9.04609338 8.88159574,9.06857143 C8.86850609,9.09699656 8.85249545,9.12382366 8.83385106,9.14857143 C8.817089,9.17437468 8.79897586,9.19917497 8.77959574,9.22285714 C8.74270213,9.28 8.70635106,9.33714286 8.67108511,9.38857143 C8.63581915,9.44 8.59512766,9.49142857 8.55389362,9.54285714 C8.39881239,9.74833866 8.23327177,9.94481725 8.058,10.1314286 C7.72027427,10.5076717 7.30892457,10.8020892 6.85244681,10.9942857 C5.8788693,11.4106968 4.78211143,11.3648831 3.84290426,10.8685714 C3.10674527,10.5073175 2.52118524,9.87535285 2.19625532,9.09142857 C2.03118054,8.70455118 1.91218112,8.29765168 1.84196809,7.88 C1.77082678,7.46295638 1.73037668,7.04074827 1.72097872,6.61714286 C1.70061252,5.8000009 1.79197394,4.98402311 1.99225532,4.19428571 C1.83717273,4.25511697 1.66681202,4.25713755 1.51046809,4.2 C1.44118857,4.20174406 1.37192189,4.19599972 1.30375532,4.18285714 C1.21580811,4.17770526 1.13158666,4.14374208 1.0628617,4.08571429 C0.822121356,3.91322305 0.727584675,3.58766643 0.835531915,3.30285714 C0.336630559,4.18350988 0.0537713334,5.18113669 0.0124787234,6.20571429 C-0.0487177984,7.23150843 0.147178853,8.25622392 0.580531915,9.17714286 C1.2476996,10.6745908 2.60169754,11.7030822 4.16138298,11.8971429 C4.70201686,11.9718135 5.24993459,11.9660427 5.78904255,11.88 C6.5246665,11.7693563 7.2176475,11.4492759 7.79323404,10.9542857 C8.09568737,10.6948311 8.36876311,10.3995523 8.60706383,10.0742857 C8.68953191,9.95428571 8.80455319,9.78285714 8.95158511,9.54857143 C8.97925532,9.50285714 9.00584043,9.45714286 9.03079787,9.41142857 C9.05499004,9.36433703 9.08142807,9.31856428 9.11001064,9.27428571 C9.13131754,9.24061873 9.1410788,9.200302 9.13768085,9.16 L9.04761702,9.10857143 C9.03220039,9.09554541 9.01450331,9.08583763 8.99553191,9.08 Z M3.55046809,1.46285714 C3.5873617,1.52571429 3.62642553,1.58285714 3.66765957,1.64 C3.70909731,1.59943849 3.7625754,1.575213 3.81903191,1.57142857 C3.88000042,1.55416219 3.93996344,1.53317434 3.99861702,1.50857143 C4.02574468,1.50857143 4.06969149,1.50285714 4.12937234,1.50285714 C4.13426395,1.44879284 4.14352084,1.39526587 4.15704255,1.34285714 C4.19045914,1.17558694 4.29799992,1.03533479 4.4462234,0.965714286 C4.50499224,0.936942005 4.56754795,0.917677384 4.6317766,0.908571429 C4.6559788,0.899298671 4.67412676,0.877822461 4.68006383,0.851428571 C4.69267852,0.824025518 4.70662245,0.797323613 4.72184043,0.771428571 C4.48257447,0.8 4.27152128,0.834285714 4.0881383,0.862857143 C3.88160638,0.914285714 3.61521277,1 3.28895745,1.12 C3.31662766,1.14857143 3.34321277,1.17714286 3.36491489,1.20571429 C3.38903631,1.23108196 3.41185595,1.25778655 3.4332766,1.28571429 C3.47505319,1.34285714 3.51357447,1.40571429 3.55046809,1.46285714 Z M1.91846809,2.86857143 C1.95047872,2.94285714 1.97760638,3.01142857 2.00093617,3.08 C2.02224954,3.14827779 2.04761876,3.21507629 2.07689362,3.28 C2.16135516,3.48479738 2.31648759,3.64818616 2.51093617,3.73714286 C2.70537684,3.86703604 2.94408745,3.9006913 3.16411959,3.82923369 C3.38415173,3.75777607 3.56341535,3.58837955 3.6546383,3.36571429 C3.79964395,3.17093205 3.81330883,2.90136488 3.68881915,2.69142857 C3.64594344,2.5869359 3.56282787,2.50663274 3.46029352,2.47063562 C3.35775916,2.43463849 3.24551953,2.44635758 3.15169149,2.50285714 C3.05619001,2.56331251 2.98047806,2.65302162 2.93467021,2.76 C2.90185735,2.80806267 2.8909463,2.86896584 2.9048738,2.92631727 C2.91880129,2.9836687 2.95613622,3.03157529 3.00682979,3.05714286 C3.0418657,3.09537284 3.09263554,3.11279048 3.14232858,3.1036285 C3.19202161,3.09446653 3.2341546,3.05992027 3.2547766,3.01142857 C3.30342127,2.91926196 3.3182852,2.81150674 3.29655319,2.70857143 C3.39181508,2.83600575 3.42494306,3.00306011 3.38607447,3.16 C3.3511846,3.2736456 3.24316384,3.34384398 3.13107447,3.32571429 C3.0206982,3.3243566 2.91392996,3.28412383 2.82778723,3.21142857 C2.7371746,3.13794348 2.67898442,3.02867278 2.66669254,2.90892168 C2.65440067,2.78917057 2.6890733,2.66932634 2.76268085,2.57714286 C2.87523734,2.36782169 3.08196052,2.2340361 3.31011702,2.22285714 C3.54707963,2.21352303 3.76861709,2.34634729 3.88196809,2.56571429 C3.9488618,2.67504679 3.98636204,2.80143416 3.99047872,2.93142857 C4.06165039,2.99981296 4.14012305,3.05925893 4.22431915,3.10857143 C4.42391306,3.23069661 4.67479395,3.20783907 4.85151064,3.05142857 C4.95385427,2.98586087 5.04186696,2.8982273 5.10976596,2.79428571 C5.17595745,2.69142857 5.2437766,2.59428571 5.31268085,2.49142857 C5.50006806,2.22366237 5.784578,2.04983114 6.09829787,2.01142857 C5.83448318,1.97456766 5.56704309,2.04172972 5.34740426,2.2 C5.25207846,2.2748022 5.14794397,2.33626723 5.03760638,2.38285714 C4.90366861,2.42998299 4.75750444,2.41972011 4.63069149,2.35428571 C4.39387619,2.25299902 4.21739704,2.03845009 4.15595745,1.77714286 C4.15595745,1.75428571 4.15107447,1.74285714 4.14185106,1.74285714 C3.9479155,1.73924565 3.76021746,1.81504295 3.61828723,1.95428571 C3.5267766,1.78285714 3.42803191,1.60571429 3.32205319,1.42285714 C3.22297967,1.23804546 3.05174522,1.10847928 2.85382979,1.06857143 C2.64027616,1.01564906 2.41544035,1.06594326 2.24074468,1.20571429 C2.10981333,1.32452571 2.01538575,1.48166167 1.96946809,1.65714286 L1.96946809,1.65142857 C1.96946809,1.65142857 1.99225532,1.68 2.03837234,1.73142857 C2.12152731,1.80405334 2.18155225,1.90177441 2.2103617,2.01142857 C2.28380601,2.23100004 2.20033299,2.47467906 2.01070213,2.59428571 C1.861084,2.73018778 1.63631391,2.71758221 1.50124468,2.56571429 C1.4231003,2.46086949 1.37106708,2.33712191 1.34987234,2.20571429 C1.42518246,2.3074564 1.52171706,2.38957632 1.632,2.44571429 C1.6980302,2.47549262 1.77306464,2.47372095 1.83776145,2.44085597 C1.90245826,2.40799099 1.95048734,2.34724829 1.96946809,2.27428571 C2.00566033,2.2085808 2.01512564,2.1302667 1.99571701,2.05710734 C1.97630837,1.98394797 1.92967078,1.92214397 1.86638298,1.88571429 C1.7501494,1.79349958 1.6044185,1.7525151 1.46001064,1.77142857 C1.18150508,1.79389384 0.969033802,2.04309685 0.977680851,2.33714286 C0.975874744,2.49667363 1.01768681,2.65338316 1.09812766,2.78857143 C1.16870559,2.93281105 1.3006507,3.03268059 1.45295745,3.05714286 C1.62744143,3.08236953 1.80194999,3.01109723 1.91467021,2.86857143 L1.91846809,2.86857143 Z M4.72184043,1.61142857 C4.66118309,1.58858349 4.61161703,1.54131212 4.58403191,1.48 C4.55592561,1.41751844 4.54164172,1.34913621 4.54225532,1.28 C4.53041535,1.22492318 4.54040781,1.16714289 4.56992553,1.12 C4.45994659,1.14693724 4.37997594,1.24698565 4.37352128,1.36571429 C4.35009581,1.47689251 4.36112476,1.59305177 4.40498936,1.69714286 C4.46277356,1.82865627 4.55745398,1.93834766 4.67626596,2.01142857 C4.79012343,2.0879988 4.93301849,2.09874881 5.05605319,2.04 C5.18897872,1.98285714 5.31647872,1.92 5.43584043,1.85714286 C5.55927247,1.79374441 5.69005397,1.74763834 5.82485106,1.72 C6.12178776,1.67860286 6.42372356,1.73027871 6.69293617,1.86857143 C6.57216953,1.78866774 6.44510627,1.71984307 6.31314894,1.66285714 C6.18093166,1.60234632 6.03514073,1.5825334 5.89267021,1.60571429 C5.79175532,1.61714286 5.68867021,1.63428571 5.58287234,1.65142857 C5.47738497,1.66855311 5.36960507,1.64414105 5.28012766,1.58285714 C5.1655649,1.50956524 5.09315202,1.3810257 5.08697872,1.24 C5.06766264,1.09934862 5.12648158,0.959462949 5.23835106,0.88 C5.33263699,0.79721574 5.46312049,0.77733066 5.57581915,0.828571429 C5.69720303,0.899332489 5.76949183,1.03695459 5.76191489,1.18285714 C5.70224586,1.12373444 5.63780013,1.07019874 5.56930851,1.02285714 C5.48553694,1.00694783 5.39984343,1.03710437 5.34197872,1.10285714 C5.27928019,1.16477963 5.27310293,1.26737472 5.32787234,1.33714286 C5.3724441,1.40952416 5.44642315,1.45597833 5.52807447,1.46285714 C5.70445927,1.48234553 5.87580126,1.39344847 5.96862766,1.23428571 C6.07448306,1.08451098 6.05065473,0.873700366 5.91437234,0.754285714 C5.80484336,0.613654098 5.63424277,0.542386721 5.46296809,0.565714286 C5.29034673,0.576915722 5.12643291,0.649435572 4.998,0.771428571 C4.88627968,0.886171414 4.80958613,1.03339729 4.7777234,1.19428571 C4.71400454,1.34325962 4.74398535,1.5181794 4.8531383,1.63428571 C4.87646809,1.65142857 4.83035106,1.64571429 4.71587234,1.61142857 L4.72184043,1.61142857 Z M1.62928723,3.86285714 C1.75353191,3.76 1.76926596,3.66857143 1.67757447,3.57714286 C1.65159648,3.5448595 1.61442624,3.52487639 1.57436317,3.52165537 C1.5343001,3.51843436 1.49468064,3.53224369 1.46435106,3.56 C1.39544681,3.62285714 1.33305319,3.68 1.27825532,3.73714286 C1.29000041,3.66316738 1.30816155,3.5904821 1.33251064,3.52 C1.39244991,3.38682777 1.53667793,3.32088873 1.66997872,3.36571429 C1.81194078,3.38916229 1.9170217,3.5172342 1.91846809,3.66857143 C1.91753835,3.83099171 1.81710681,3.97418279 1.66997872,4.02285714 C1.77312673,4.04502792 1.87993909,4.03912772 1.98031915,4.00571429 C2.02556206,3.96014566 2.05465944,3.89966016 2.06278723,3.83428571 C2.07170516,3.81813446 2.07863326,3.80085251 2.08340426,3.78285714 C2.08828723,3.76 2.09262766,3.74285714 2.09751064,3.72571429 C2.09359132,3.69759498 2.07837095,3.6726125 2.05573404,3.65714286 C1.95685867,3.52508462 1.87998973,3.37630371 1.82840426,3.21714286 C1.6917844,3.28802793 1.53589328,3.30622609 1.38785106,3.26857143 C1.31133922,3.24214463 1.23754284,3.20768575 1.16757447,3.16571429 C1.13068085,3.13714286 1.08239362,3.17142857 1.02271277,3.27428571 C0.962968028,3.40795471 0.961778501,3.56247111 1.01945745,3.69714286 C1.06364498,3.83876472 1.18480705,3.93814278 1.326,3.94857143 C1.43388151,3.96634949 1.54386754,3.93520981 1.62874468,3.86285714 L1.62928723,3.86285714 Z M5.28338298,2.94857143 C5.20075277,3.07101454 5.09671431,3.17574159 4.97684043,3.25714286 C4.82991368,3.36738907 4.65428986,3.42725016 4.47389362,3.42857143 C4.2887001,3.44204959 4.10727932,3.36888036 3.978,3.22857143 C3.96395082,3.27962712 3.94580017,3.3293304 3.92374468,3.37714286 C3.90174927,3.42300942 3.88359533,3.47080971 3.86948936,3.52 L3.86948936,3.55428571 C3.89458553,3.5756685 3.92256183,3.59300099 3.9525,3.60571429 C4.01095702,3.64331102 4.07318734,3.67397409 4.13805319,3.69714286 C4.53799263,3.85563471 4.98919205,3.74517252 5.28175532,3.41714286 C5.41856773,3.29340118 5.53498253,3.1466547 5.6262766,2.98285714 C5.71894632,2.81864888 5.82808195,2.66539026 5.95180851,2.52571429 C6.10014203,2.36058378 6.30787763,2.26924764 6.52365957,2.27428571 C6.73737063,2.27035929 6.95058555,2.29727603 7.1573617,2.35428571 C6.88698056,2.21089071 6.58465021,2.14768064 6.28276596,2.17142857 C5.99970551,2.22133374 5.74171842,2.3727365 5.55248936,2.6 C5.45506284,2.70948474 5.36496366,2.82595469 5.28284043,2.94857143 L5.28338298,2.94857143 Z M8.44158511,3.65714286 C8.52901756,3.875411 8.60491028,4.09860964 8.66891489,4.32571429 C8.68896362,4.36809057 8.73320835,4.39139032 8.77742553,4.38285714 L8.91523404,4.38285714 C8.89678723,4.06285714 8.87725532,3.74285714 8.8566383,3.41714286 C8.83602128,3.09142857 8.81431915,2.77142857 8.79098936,2.44 C8.78176596,2.28 8.77308511,2.12 8.7638617,1.96 C8.7546383,1.8 8.74324468,1.63428571 8.7291383,1.47428571 C8.72804238,1.32717729 8.7188033,1.18026131 8.70146809,1.03428571 C8.70146809,1 8.70146809,0.965714286 8.69821277,0.925714286 C8.69495745,0.885714286 8.69224468,0.857142857 8.68790426,0.822857143 C8.68790426,0.771428571 8.67162766,0.748571429 8.63961702,0.748571429 L8.45352128,0.748571429 C8.42394907,0.756249683 8.40384098,0.785129149 8.4057766,0.817142857 C8.37810638,0.914285714 8.3547766,0.982857143 8.33687234,1.03428571 C8.26842439,1.28570947 8.06057776,1.46718801 7.81330851,1.49142857 C7.6796325,1.49278732 7.54819981,1.45521409 7.43352128,1.38285714 C7.30493617,1.30857143 7.18557447,1.24 7.07543617,1.18285714 C6.8152242,1.06325445 6.54564932,0.967657821 6.26974468,0.897142857 C6.25324927,0.895536259 6.23701957,0.891695032 6.22145745,0.885714286 C6.20301064,0.88 6.18456383,0.88 6.16720213,0.874285714 C6.24397624,1.05022382 6.20821704,1.25793739 6.07768085,1.39428571 C6.7482258,1.53248014 7.35213569,1.91233256 7.7856383,2.46857143 C8.05860373,2.82832095 8.27913303,3.22891266 8.43995745,3.65714286 L8.44158511,3.65714286 Z M20.0793511,11.5828571 C19.8222586,11.5494211 19.603726,11.3691597 19.5112979,11.1142857 C19.4545717,10.9791623 19.4241319,10.8334359 19.4217766,10.6857143 C19.4167128,10.5333333 19.4143617,10.3847619 19.4147234,10.24 L19.4147234,7.48 C19.383095,7.4569434 19.3438281,7.44867206 19.3062128,7.45714286 C19.2647548,7.45682538 19.2233879,7.45300358 19.1825106,7.44571429 C19.0461981,7.42612203 18.9121899,7.39165087 18.7826489,7.34285714 C18.6529909,7.29107748 18.5194089,7.25093455 18.3833298,7.22285714 C18.3692234,7.22285714 18.2981489,7.21142857 18.1695638,7.2 C18.0409787,7.18857143 17.9769574,7.18857143 17.9769574,7.22285714 L17.9769574,9.79428571 C17.9769574,9.94857143 17.9769574,10.1028571 17.9731596,10.2514286 C17.9693617,10.4 17.9628511,10.5485714 17.9492872,10.6971429 C17.9414553,10.9588954 17.8434929,11.2087116 17.6736702,11.4 C17.4642328,11.5679356 17.2071182,11.656524 16.9439362,11.6514286 L16.6938191,11.6514286 C16.638423,11.6472267 16.5827413,11.6510723 16.5283404,11.6628571 C16.5092589,11.7096788 16.5043335,11.7615544 16.514234,11.8114286 C16.5095388,11.8564583 16.5168668,11.9019746 16.5353936,11.9428571 L20.7987766,11.9428571 C20.8400106,11.9428571 20.8606277,11.9314286 20.8606277,11.8971429 L20.8606277,11.7485714 C20.8606277,11.6857143 20.8514043,11.6514286 20.8329574,11.6514286 C20.5802776,11.6489581 20.3281518,11.6260334 20.0788085,11.5828571 L20.0793511,11.5828571 Z M14.0320532,11.6114286 C13.8097242,11.5862938 13.6044684,11.474125 13.4569468,11.2971429 C13.3705635,11.196934 13.3152907,11.0713344 13.2985213,10.9371429 C13.2804737,10.8045209 13.268884,10.6710129 13.2637979,10.5371429 C13.2594574,10.3771429 13.2572872,10.1314286 13.2572872,9.80571429 L13.2572872,7.01714286 C13.2572872,7.02857143 13.2307021,7.02285714 13.1780745,7 C13.1474808,6.98896044 13.1184584,6.97358081 13.0918085,6.95428571 C13.0402783,6.91708032 13.0020737,6.86275918 12.9832979,6.8 C12.9301702,6.66619636 12.9042935,6.52213973 12.9073404,6.37714286 C12.6966892,6.52005345 12.425111,6.51554546 12.2188404,6.36571429 C12.1201759,6.3004125 12.0430581,6.20462232 11.9980213,6.09142857 C11.9524468,6.04 11.9405106,6.01714286 11.9638404,6.01714286 C11.9167646,6.03567912 11.8646061,6.03362165 11.8189787,6.01142857 L11.8189787,10.0228571 C11.8189787,10.2742857 11.8168085,10.4628571 11.8124681,10.5885714 C11.7983617,10.7142857 11.7788298,10.84 11.7538723,10.9771429 C11.7311139,11.1022161 11.6803341,11.2197599 11.6057553,11.32 C11.4670875,11.4731736 11.2865502,11.5770347 11.0892447,11.6171429 C10.9961696,11.6373546 10.9015753,11.6488282 10.8065745,11.6514286 L10.3795851,11.6514286 C10.3714905,11.7043087 10.3691243,11.757986 10.3725319,11.8114286 C10.3597335,11.8573365 10.3701788,11.9069498 10.4002021,11.9428571 L14.7053617,11.9428571 L14.7053617,11.6514286 C14.4801956,11.651974 14.2551926,11.6386177 14.0315106,11.6114286 L14.0320532,11.6114286 Z M10.8564894,1.54285714 C11.0197881,1.54979989 11.180186,1.59057716 11.3285106,1.66285714 C11.5435989,1.75953949 11.7039312,1.95584549 11.7625532,2.19428571 C11.7899093,2.34896026 11.8060516,2.50560286 11.8108404,2.66285714 C11.8151809,2.82285714 11.8173511,2.97714286 11.8173511,3.13142857 L11.8173511,4.49142857 C11.9814007,4.44519846 12.1530769,4.43739639 12.3202979,4.46857143 C12.3468067,4.47796042 12.3758855,4.46590277 12.3892021,4.44 C12.4037006,4.4159419 12.4198388,4.39302448 12.4374894,4.37142857 C12.4549698,4.34968997 12.4710991,4.32678517 12.4857766,4.30285714 C12.6610584,4.04497768 12.9601522,3.91427653 13.2572872,3.96571429 L13.2572872,3.27428571 C13.2572872,3.17142857 13.2572872,3.06857143 13.2534894,2.96571429 C13.2496915,2.86285714 13.2534894,2.76 13.2572872,2.65714286 C13.2624586,2.53278547 13.2738681,2.40880295 13.2914681,2.28571429 C13.3069728,2.15815659 13.351862,2.03652809 13.4222234,1.93142857 C13.5228172,1.77653978 13.671494,1.66339116 13.8427021,1.61142857 C14.0144028,1.55543343 14.1930349,1.52654822 14.3727766,1.52571429 L14.703734,1.52571429 L14.703734,1.23428571 L10.4175638,1.23428571 C10.4042975,1.22959864 10.3902957,1.22765824 10.3763298,1.22857143 C10.3390074,1.32325588 10.3364931,1.42918391 10.3692766,1.52571429 C10.5352979,1.52571429 10.6975213,1.53142857 10.8559468,1.54285714 L10.8564894,1.54285714 Z M17.6584787,7.14857143 C17.9371627,7.03276275 18.2438826,7.01472679 18.5330745,7.09714286 C18.6415851,7.13142857 18.7500957,7.16571429 18.8586064,7.19428571 C18.9664096,7.22710339 19.0771294,7.24816641 19.1890213,7.25714286 C19.2899362,7.26857143 19.4440213,7.26857143 19.650734,7.26857143 C19.4806841,7.25519641 19.3122554,7.22457847 19.1477872,7.17714286 C18.9823085,7.13142857 18.8195426,7.07428571 18.6594894,7.01714286 C18.4736422,6.94382348 18.2786075,6.89954478 18.0805851,6.88571429 C17.8174728,6.89887487 17.5617081,6.98139732 17.3367447,7.12571429 C17.1945957,7.21142857 17.0578723,7.30285714 16.927117,7.38857143 C16.7963617,7.47428571 16.6639787,7.57142857 16.5310532,7.65714286 C16.2990298,7.82190488 16.0311976,7.92215866 15.7524894,7.94857143 C15.5289845,7.96941824 15.304935,7.91542426 15.1122766,7.79428571 C14.8091993,7.59623665 14.6987776,7.18795444 14.8572766,6.85142857 C14.8985106,6.76571429 14.9191277,6.73142857 14.9191277,6.74857143 C14.9115142,6.71758052 14.9022766,6.68705757 14.8914574,6.65714286 C14.8423553,6.51060582 14.8834753,6.347349 14.9950851,6.24571429 C15.1171672,6.13685116 15.2724323,6.07801336 15.432383,6.08 C15.592078,6.07399318 15.7519764,6.07972135 15.9109149,6.09714286 C16.0685472,6.12298026 16.2291603,6.1210492 16.3861915,6.09142857 C16.4639579,6.07844818 16.5335337,6.03316363 16.5793404,5.96571429 C16.5955476,5.88155924 16.5883897,5.79426811 16.5587234,5.71428571 C16.69285,5.89708803 16.9232571,5.96852923 17.1300319,5.89142857 C17.317695,5.80490096 17.4393341,5.61004408 17.4403723,5.39428571 C17.585505,5.47629819 17.76452,5.44843478 17.8809255,5.32571429 C17.9609512,5.21495805 17.9865047,5.07085463 17.9498298,4.93714286 C17.9237613,4.80212176 17.8279556,4.69393082 17.701883,4.65714286 C17.5302222,4.63848192 17.3577143,4.68289479 17.2135851,4.78285714 C17.1951383,4.70857143 17.1728936,4.62857143 17.1479362,4.53714286 C17.1257403,4.45384158 17.072249,4.38367681 16.9998191,4.34285714 C16.9153513,4.29221043 16.8100409,4.30128325 16.7345106,4.36571429 C16.6628907,4.42158753 16.5950855,4.48269028 16.5315957,4.54857143 C16.4892135,4.42032252 16.4236197,4.30194691 16.3384468,4.2 C16.2353642,4.11259649 16.1055051,4.06788702 15.9733085,4.07428571 C15.7163924,4.08114012 15.4852664,4.24047401 15.3765,4.48571429 C15.3081367,4.40058869 15.2079789,4.35101887 15.1021253,4.34992156 C14.9962717,4.34882424 14.8952069,4.39630812 14.825266,4.48 C14.7446633,4.56094071 14.6966846,4.67141588 14.6912553,4.78857143 C14.684098,4.90869628 14.7491852,5.02066327 14.8540213,5.06857143 C14.9795008,5.11731566 15.114808,5.1310941 15.2468298,5.10857143 C15.355463,5.28110436 15.508184,5.41778642 15.687383,5.50285714 C15.8949029,5.60215675 16.1326473,5.60423301 16.3417021,5.50857143 C16.6216596,5.37142857 16.6493298,5.17714286 16.4247128,4.92571429 C16.3429913,4.85085559 16.246412,4.79618871 16.1420426,4.76571429 C16.0395182,4.71769568 15.9190751,4.75672745 15.8599149,4.85714286 C15.8312408,4.90489147 15.8230792,4.96318576 15.837447,5.01761908 C15.8518147,5.07205241 15.8873715,5.11754615 15.9353298,5.14285714 C16.0181717,5.22754814 16.1476448,5.23486641 16.238617,5.16 C16.204628,5.27510674 16.0916068,5.34262733 15.9803617,5.31428571 C15.8720954,5.29680696 15.7746771,5.23524513 15.7090851,5.14285714 C15.6320115,5.05664126 15.6233845,4.92513181 15.6884681,4.82857143 C15.7688251,4.66764301 15.922076,4.56151178 16.0942071,4.54758409 C16.2663382,4.5336564 16.4331829,4.61388764 16.5359362,4.76 C16.726294,4.93565557 16.7800343,5.22452902 16.6666915,5.46285714 C16.618108,5.57479476 16.5268673,5.65989113 16.4154894,5.69714286 C16.3093689,5.73363444 16.2004532,5.76040065 16.0899574,5.77714286 C15.9190118,5.80290782 15.7446333,5.77715195 15.5870106,5.70285714 C15.4135529,5.63990622 15.2653798,5.51707265 15.1665319,5.35428571 L15.1046809,5.33142857 C15.0186402,5.32353409 14.9333562,5.30824508 14.8496809,5.28571429 C14.6735205,5.23898464 14.543626,5.08165576 14.5241489,4.89142857 C14.5105842,4.83735553 14.5081792,4.78084875 14.5170957,4.72571429 C14.5159955,4.69372068 14.500736,4.6641151 14.4758617,4.64571429 C14.3225347,4.47932988 14.0985499,4.40803974 13.8833936,4.45714286 C13.8420656,4.4836579 13.7938099,4.49566357 13.7455851,4.49142857 C13.7227979,4.46857143 13.7010957,4.44571429 13.6804787,4.42285714 C13.6598617,4.39428571 13.6397872,4.37142857 13.621883,4.34285714 C13.4816398,4.18090266 13.2780815,4.09649639 13.0706489,4.11428571 C12.8728947,4.14921553 12.6968613,4.2666369 12.5823511,4.44 C12.5396,4.49823902 12.5004552,4.55931785 12.4651596,4.62285714 C12.4521534,4.63959536 12.4427167,4.65908346 12.4374894,4.68 C12.4147021,4.67428571 12.3940851,4.66857143 12.3756383,4.66285714 C12.3571915,4.65714286 12.3387447,4.64571429 12.321383,4.64 C12.1543765,4.5766801 11.9699219,4.58909361 11.8119255,4.67428571 C11.6581108,4.76561699 11.5555068,4.92941589 11.5363085,5.11428571 C11.4908058,5.31150071 11.5231027,5.51971813 11.6258298,5.69142857 C11.6691576,5.77407558 11.7447137,5.83255754 11.8325426,5.85142857 C11.9216949,5.85276789 12.0079304,5.81799254 12.0734362,5.75428571 C12.0639411,5.95995586 12.1675093,6.1530686 12.3396558,6.25067743 C12.5118024,6.34828626 12.7218858,6.33301716 12.8796702,6.21142857 C12.9529149,6.18285714 12.9919787,6.16571429 12.9963191,6.16571429 C13.0701064,6.22285714 13.1455213,6.27428571 13.2236489,6.32571429 C13.2992118,6.38178746 13.3868536,6.4171388 13.4786489,6.42857143 C13.5951164,6.45497559 13.7160795,6.41352666 13.7955,6.32 C13.8779747,6.23048698 13.9497614,6.13070072 14.009266,6.02285714 C14.0409277,6.09159703 14.0983266,6.14335534 14.1676915,6.16571429 C14.2487018,6.19247822 14.3358171,6.19047053 14.4156383,6.16 C14.561939,6.13717376 14.6921278,6.04991712 14.7737234,5.92 C14.81585,5.85320669 14.8262827,5.76964983 14.8019841,5.69365653 C14.7776854,5.61766323 14.7213866,5.55777523 14.6494787,5.53142857 C14.4933433,5.46940398 14.3228787,5.4594297 14.1611809,5.50285714 C14.1807675,5.38725003 14.1615877,5.26806709 14.1069255,5.16571429 C14.0514812,5.11316934 13.9857177,5.07414764 13.9143191,5.05142857 C13.8167034,5.02692856 13.7147835,5.02889457 13.6180851,5.05714286 C13.5192991,5.11504728 13.4434663,5.20829503 13.4043191,5.32 C13.3547806,5.20227809 13.2594881,5.1127417 13.1428085,5.07428571 C13.0088706,5.03863051 12.868152,5.0958978 12.7917766,5.21714286 C12.6810957,5.36952381 12.6924894,5.48380952 12.8259574,5.56 C12.9766572,5.6199435 13.1454398,5.60085175 13.280617,5.50857143 C13.2502762,5.63412428 13.3039431,5.76546443 13.4113723,5.82857143 C13.5071258,5.85077357 13.6072489,5.83660538 13.6940426,5.78857143 C13.8013485,5.76444653 13.8881249,5.68155868 13.9213723,5.57142857 C13.9300532,5.48571429 13.8823085,5.44571429 13.7765106,5.44571429 C13.7022112,5.44498696 13.6281458,5.45459377 13.556234,5.47428571 C13.6407933,5.40293396 13.7443055,5.36100273 13.8524681,5.35428571 C13.9065585,5.34546543 13.9617488,5.35984593 14.0056952,5.39421089 C14.0496416,5.42857585 14.0786774,5.48005798 14.0863085,5.53714286 C14.1167006,5.66089872 14.0697484,5.79139476 13.969117,5.86285714 C13.8780724,5.93613886 13.7756354,5.99221012 13.6663723,6.02857143 C13.5737534,6.07476714 13.4673398,6.07958057 13.3713013,6.04191843 C13.2752629,6.00425629 13.1977514,5.9273154 13.1563723,5.82857143 C13.1152404,5.80980596 13.0698618,5.80385655 13.025617,5.81142857 C12.9284077,5.81942768 12.8309481,5.79968796 12.7434894,5.75428571 C12.6381185,5.7142866 12.55804,5.62245297 12.5291465,5.50847851 C12.5002531,5.39450405 12.5262113,5.27285184 12.5986277,5.18285714 C12.6889733,4.95937975 12.9061419,4.82306796 13.1357553,4.84571429 C13.1542021,4.85142857 13.244266,4.89142857 13.4070319,4.97142857 C13.4162553,4.98285714 13.4368723,4.97142857 13.4694255,4.93714286 C13.486997,4.91181415 13.5108303,4.892049 13.5383298,4.88 C13.7403609,4.7657497 13.986678,4.78351864 14.1720319,4.92571429 C14.2294265,4.97602876 14.2763417,5.03828012 14.3098404,5.10857143 C14.3141144,5.1336471 14.3197297,5.15844851 14.3266596,5.18285714 C14.3299028,5.20556595 14.3382758,5.22712258 14.3510745,5.24571429 C14.4788792,5.25442539 14.6058533,5.27352993 14.7308617,5.30285714 C14.9067095,5.34686852 15.0307167,5.51249339 15.0303511,5.70285714 C15.0357861,5.88871985 14.9612138,6.06722228 14.8274362,6.18857143 C14.6795241,6.32721136 14.4877542,6.40262121 14.289766,6.4 C14.2133198,6.40360799 14.1373267,6.38586568 14.0694894,6.34857143 C14.0390364,6.35031441 14.012238,6.37031608 14.0005851,6.4 C13.89499,6.54414874 13.7383413,6.63695323 13.5665426,6.65714286 C13.389994,6.64944041 13.2197815,6.58569943 13.0782447,6.47428571 C13.0620279,6.62435913 13.1288775,6.77094874 13.250234,6.85142857 C13.4083718,6.89022101 13.5746094,6.84782755 13.698383,6.73714286 C13.7400182,6.8871791 13.8063092,7.02836444 13.8942447,7.15428571 C13.9815419,7.29561139 14.1583324,7.34072029 14.2973617,7.25714286 C14.3697157,7.24394952 14.433419,7.19919794 14.4727818,7.13391017 C14.5121446,7.06862241 14.5235084,6.98886644 14.5040745,6.91428571 C14.4534362,6.76571429 14.3248511,6.74857143 14.1183191,6.86285714 C14.1718457,6.77230783 14.2515197,6.7022123 14.3456489,6.66285714 C14.4563268,6.61862343 14.5811872,6.66438546 14.641883,6.77142857 C14.7125837,6.8667446 14.7366632,6.99150498 14.7069067,7.10832856 C14.6771502,7.22515214 14.5970147,7.3204669 14.4905106,7.36571429 C14.444365,7.40505621 14.3901047,7.43245598 14.3320851,7.44571429 L14.2631809,7.49714286 C14.2453361,7.62133327 14.2960371,7.74541464 14.3939362,7.81714286 C14.4645338,7.88501535 14.5628751,7.91080168 14.6554468,7.88571429 C14.7489932,7.85886188 14.8410141,7.82642857 14.9310638,7.78857143 C14.913579,8.00691948 15.0260986,8.2139105 15.213734,8.30857143 C15.4213017,8.39841533 15.6510366,8.41446586 15.8680532,8.35428571 C16.083673,8.31003459 16.2874186,8.21639565 16.4648617,8.08 C16.6439043,7.94285714 16.8164362,7.79428571 16.9813723,7.64 C17.1872142,7.44186899 17.419325,7.27632642 17.6704149,7.14857143 L17.6584787,7.14857143 Z M16.5218298,6.83428571 C16.6297155,6.74558014 16.7423939,6.66353769 16.8592979,6.58857143 C17.099231,6.44057426 17.3594887,6.33262699 17.6308085,6.26857143 C17.9136937,6.20065997 18.2087427,6.21447994 18.4847872,6.30857143 C18.6247403,6.36197122 18.7596904,6.42892452 18.8879043,6.50857143 C19.0186596,6.58285714 19.1532128,6.65714286 19.2910213,6.72571429 C19.0372287,6.5232743 18.7608128,6.35439367 18.4679681,6.22285714 C18.1737032,6.09080788 17.8524035,6.03968416 17.534234,6.07428571 C17.202064,6.13255296 16.8839344,6.25873463 16.5977872,6.44571429 C16.357305,6.59841688 16.0904735,6.69940995 15.8127128,6.74285714 C15.8427283,6.91496728 15.9909894,7.03565244 16.1566915,7.02285714 C16.2897572,6.98855581 16.4141583,6.9242147 16.5212872,6.83428571 L16.5218298,6.83428571 Z M15.4095957,7.68 C15.576109,7.71763794 15.7479062,7.72151662 15.9157979,7.69142857 C16.1106453,7.64619699 16.295049,7.56074111 16.4583511,7.44 C16.6279894,7.32 16.7956383,7.20571429 16.9612979,7.09714286 C17.1393409,6.98463291 17.3246206,6.88534418 17.5157872,6.8 C17.7085222,6.71381162 17.9156869,6.6691244 18.1250745,6.66857143 C18.3463195,6.67352411 18.564738,6.7219746 18.7690851,6.81142857 C18.9751226,6.90575462 19.1914289,6.97292935 19.4130957,7.01142857 C19.2020047,6.92965623 18.9990251,6.82630576 18.8070638,6.70285714 C18.6189498,6.58953675 18.4140831,6.51033738 18.2010319,6.46857143 C17.7946331,6.42927684 17.3873975,6.53383979 17.043766,6.76571429 C16.8925745,6.86285714 16.7341489,6.97714286 16.5684894,7.10857143 C16.4164113,7.22996519 16.2284223,7.29069954 16.0378723,7.28 C15.8304322,7.29311676 15.6499296,7.13196462 15.6282447,6.91428571 C15.584665,6.70810076 15.6154114,6.49221552 15.7145106,6.30857143 C15.5363676,6.27488899 15.3526575,6.3029597 15.1909468,6.38857143 C15.0745367,6.49420604 15.0564589,6.67708992 15.1497128,6.80571429 C15.117286,6.83175955 15.0932341,6.86766315 15.0808085,6.90857143 C15.0184051,7.04608842 15.0085005,7.20358737 15.0531383,7.34857143 C15.0852716,7.53211976 15.232156,7.6688987 15.4090532,7.68 L15.4095957,7.68 Z M17.4382021,1.64 C17.6212584,1.70945408 17.7733828,1.84789126 17.8651915,2.02857143 C17.920834,2.15214559 17.9523815,2.28621761 17.9579681,2.42285714 C17.9650213,2.57142857 17.9704468,2.70857143 17.9753298,2.84 L17.9753298,4.50857143 C17.9677117,4.57820552 17.9822117,4.64853591 18.0165638,4.70857143 C18.1018311,4.83854024 18.1340761,4.99908332 18.1060851,5.15428571 C18.101917,5.23007443 18.0780837,5.3032056 18.0371809,5.36571429 C18.0190169,5.39795115 17.9983279,5.42853367 17.9753298,5.45714286 L17.9753298,5.88 C17.9753298,5.90285714 18.0062553,5.92 18.0681064,5.92571429 C18.1299574,5.93142857 18.1679362,5.93714286 18.1820426,5.93714286 C18.3266675,5.96525127 18.4676262,6.01128563 18.6019787,6.07428571 C18.8903559,6.22057947 19.1631629,6.39872171 19.4158085,6.60571429 L19.4158085,3.76571429 C19.4158085,3.68 19.4158085,3.59428571 19.4125532,3.50285714 C19.4092979,3.41142857 19.4087553,3.32 19.4087553,3.22857143 C19.3989095,2.99992473 19.4036222,2.77084012 19.4228617,2.54285714 C19.426797,2.34833187 19.4714438,2.15711827 19.553617,1.98285714 C19.6729232,1.75722224 19.8883141,1.60612789 20.1319787,1.57714286 C20.3741133,1.54360933 20.6180374,1.52643137 20.8622553,1.52571429 C20.8671383,1.41714286 20.8693085,1.36571429 20.8693085,1.36 L20.8693085,1.25714286 C20.8693085,1.24 20.8459787,1.23428571 20.8004043,1.23428571 L16.5712021,1.23428571 C16.5587178,1.23197131 16.5459165,1.23583341 16.5364891,1.24475853 C16.5270616,1.25368365 16.5220558,1.26667979 16.5229149,1.28 L16.5229149,1.49714286 C16.5229149,1.51428571 16.5527553,1.52571429 16.6124362,1.52571429 L16.8837128,1.52571429 C17.0732651,1.52960913 17.2607212,1.56828351 17.4376596,1.64 L17.4382021,1.64 Z M26.4825638,11.6514286 L26.2899574,11.6514286 C26.0238566,11.6539534 25.7628576,11.5745055 25.5390638,11.4228571 C25.3466007,11.2747174 25.2317771,11.0396257 25.229266,10.7885714 C25.2107548,10.6484089 25.2002465,10.5072027 25.1977979,10.3657143 C25.1977979,10.2228571 25.1945426,10.08 25.1945426,9.93142857 L25.1945426,4.12 C25.1945426,3.91428571 25.1945426,3.70285714 25.1912872,3.49714286 C25.1880319,3.29142857 25.1912872,3.07428571 25.2015957,2.86285714 C25.2015957,2.80571429 25.2015957,2.75428571 25.2048511,2.70285714 C25.2074539,2.64919373 25.2132525,2.59575532 25.2222128,2.54285714 C25.2231722,2.48698025 25.2300879,2.43139367 25.2428298,2.37714286 C25.1934737,2.35279917 25.1471826,2.32208747 25.1050213,2.28571429 C25.0610897,2.57359911 24.8706234,2.8128305 24.6091277,2.90857143 C24.3217821,3.04262783 23.9862969,2.98426162 23.7551489,2.76 C23.7687128,3.17714286 23.7730532,3.6 23.7687128,4.02285714 C23.7643723,4.44571429 23.7616596,4.86857143 23.7616596,5.29142857 L23.7616596,9.84 C23.7616596,10.1828571 23.7573191,10.44 23.7480957,10.6057143 C23.737838,10.8355003 23.6790839,11.0599898 23.5761064,11.2628571 C23.4368404,11.4691348 23.2186973,11.6007206 22.9792979,11.6228571 C22.8719433,11.6436321 22.7629046,11.6532023 22.653766,11.6514286 L22.3369149,11.6514286 C22.3190106,11.6514286 22.3097872,11.6914286 22.3097872,11.7771429 C22.2966205,11.833953 22.3064455,11.8939708 22.3369149,11.9428571 L26.6350213,11.9428571 C26.6583113,11.905773 26.6646772,11.8596784 26.652383,11.8171429 C26.652383,11.7371429 26.6491277,11.6857143 26.6491277,11.6685714 C26.5975432,11.6406083 26.5377597,11.6344753 26.4820213,11.6514286 L26.4825638,11.6514286 Z M22.6304362,2.03428571 C22.6459674,2.02693961 22.662139,2.02119841 22.6787234,2.01714286 C22.6661175,1.98990929 22.6568208,1.96111091 22.6510532,1.93142857 C22.6328052,1.83494138 22.6352147,1.73538273 22.6581064,1.64 C22.5295213,1.66857143 22.4904574,1.76 22.5409149,1.92 C22.5323988,1.90450884 22.5192271,1.89244566 22.5034787,1.88571429 C22.4855809,1.88300187 22.4707824,1.86964237 22.4655,1.85142857 C22.4322608,1.81693459 22.4146767,1.76907422 22.4172128,1.72 C22.4153521,1.64957002 22.4372682,1.58072752 22.4790638,1.52571429 C22.5278191,1.45375022 22.6092611,1.41456302 22.6928298,1.42285714 C22.7291558,1.41847481 22.7618534,1.39760338 22.7823511,1.36571429 C22.8149768,1.32578685 22.8513297,1.28941363 22.8908617,1.25714286 C22.7531534,1.18770616 22.5956607,1.17546449 22.449766,1.22285714 C22.3018103,1.25276579 22.1788463,1.36068932 22.124234,1.50857143 C22.0725632,1.65601801 22.1162724,1.82174562 22.2327447,1.92 C22.3304702,2.0365555 22.4843044,2.08137471 22.6250106,2.03428571 L22.6304362,2.03428571 Z M23.2641383,2.33142857 C23.4027335,2.38202277 23.5550671,2.36960154 23.684617,2.29714286 C23.7558868,2.58128572 24.0024402,2.77722248 24.2814255,2.77142857 C24.4398988,2.76999801 24.593539,2.71378363 24.7187234,2.61142857 C24.8516294,2.51643205 24.9306333,2.35773523 24.929234,2.18857143 C24.9413409,2.03200395 24.8544275,1.88563436 24.7154681,1.82857143 C24.6497516,1.79176278 24.5717008,1.78845885 24.5033915,1.81959412 C24.4350823,1.8507294 24.3839423,1.91291839 24.3644362,1.98857143 C24.3398049,2.01836666 24.3293403,2.05832363 24.3359853,2.09720514 C24.3426303,2.13608666 24.3656671,2.16969243 24.398617,2.18857143 C24.4510793,2.2398937 24.5322505,2.2398937 24.5847128,2.18857143 C24.6628404,2.10857143 24.648734,2.01714286 24.5434787,1.92 C24.6142636,1.90100995 24.6891721,1.92557639 24.7372077,1.98353399 C24.7852433,2.04149159 24.7982356,2.12298213 24.7708085,2.19428571 C24.7685288,2.30643358 24.7059136,2.40746313 24.6093533,2.45479338 C24.512793,2.50212363 24.3990831,2.48752208 24.3161489,2.41714286 C24.2048296,2.38473975 24.1181451,2.29264134 24.0883522,2.17511902 C24.0585594,2.0575967 24.090119,1.93224685 24.1712872,1.84571429 C24.2647453,1.65339622 24.4642907,1.54532426 24.6671809,1.57714286 C24.8766172,1.58691577 25.0567589,1.73639924 25.1147872,1.94857143 C25.1229606,2.00296827 25.1444666,2.0541783 25.1771809,2.09714286 C25.230344,2.15042366 25.2935678,2.19131144 25.362734,2.21714286 C25.5859635,2.27035315 25.8145232,2.15425599 25.9139681,1.93714286 C25.9828723,1.84 26.0496064,1.73714286 26.1136277,1.63428571 C26.1830288,1.52793821 26.278195,1.44309688 26.3892447,1.38857143 C26.3045188,1.41785871 26.2235953,1.45817036 26.1483511,1.50857143 C26.086721,1.5619479 26.0222319,1.61155334 25.9552021,1.65714286 C25.7923153,1.79002676 25.5590769,1.7648833 25.4251277,1.6 C25.3750067,1.54962629 25.3320627,1.49188639 25.2976277,1.42857143 C25.2645224,1.36232666 25.2092168,1.31140965 25.1424574,1.28571429 C25.0050015,1.27861119 24.8723733,1.33998875 24.7843723,1.45142857 C24.7300809,1.1918587 24.5357406,0.990310646 24.2884787,0.937142857 C24.1248656,0.905568797 23.9559582,0.929581868 23.8061489,1.00571429 C23.7425162,1.03546315 23.6877562,1.08286679 23.6477234,1.14285714 C23.6278976,1.17302452 23.6116795,1.20565167 23.5994362,1.24 C23.6072426,1.25093547 23.616571,1.26056771 23.6271064,1.26857143 C23.6382179,1.27527281 23.6498311,1.28100619 23.6618298,1.28571429 C23.7872085,1.38239322 23.8398613,1.55267038 23.7925851,1.70857143 C23.766009,1.86434519 23.6555175,1.98942838 23.5099149,2.02857143 C23.3679807,2.06838597 23.217062,2.0169673 23.1241596,1.89714286 C23.0373511,1.78285714 23.0346383,1.69714286 23.1176489,1.62857143 C23.1454665,1.73836018 23.2372435,1.81679668 23.3449787,1.82285714 C23.4244164,1.8297912 23.5010701,1.79030209 23.5446383,1.72 C23.5960459,1.65119467 23.5899639,1.55264589 23.5305319,1.49142857 C23.4292235,1.35168252 23.2421397,1.31913451 23.1035426,1.41714286 C22.9193424,1.49461819 22.8277378,1.71296732 22.8973723,1.90857143 C22.9422202,2.10593288 23.0797565,2.26544708 23.2619681,2.33142857 L23.2641383,2.33142857 Z M37.443766,1.06285714 L35.3278085,1.06285714 C35.3093617,1.06285714 35.3028511,1.09714286 35.3071915,1.17142857 C35.3115319,1.24571429 35.3142447,1.29142857 35.3142447,1.30857143 C35.3142447,1.33714286 35.3348617,1.35428571 35.3760957,1.35428571 L35.5969149,1.35428571 C35.7538709,1.35095038 35.9107445,1.36435198 36.0651383,1.39428571 C36.2620815,1.42963661 36.4391438,1.54185451 36.5610319,1.70857143 C36.6832261,1.93880383 36.7450231,2.19914735 36.7400745,2.46285714 C36.7536383,2.68571429 36.7585213,2.90285714 36.7536383,3.12571429 C36.7487553,3.34857143 36.7471277,3.56571429 36.7471277,3.78285714 L36.7471277,6.36 C36.9426307,6.21872897 37.1789356,6.15403194 37.4150106,6.17714286 L37.4150106,2.8 C37.4150106,2.61142857 37.424234,2.40571429 37.4426809,2.18857143 C37.4543217,1.98008039 37.5374128,1.78312475 37.6765213,1.63428571 C37.7944456,1.51417773 37.9429867,1.43277781 38.1040532,1.4 C38.2678958,1.37058549 38.4337437,1.35529669 38.5999468,1.35428571 C38.6804072,1.35770808 38.7609981,1.35388465 38.8408404,1.34285714 C38.8571046,1.2992889 38.8617937,1.25187758 38.8544043,1.20571429 C38.8620855,1.15767425 38.8574017,1.10834391 38.8408404,1.06285714 L37.4464787,1.06285714 L37.443766,1.06285714 Z M36.689617,7.92571429 C36.4880974,8.11792225 36.2246612,8.22212171 35.9528298,8.21714286 C35.8163663,8.21814818 35.6808694,8.19297576 35.5529681,8.14285714 C35.4983511,8.13142857 35.4685106,8.12571429 35.4634468,8.12571429 C35.4261536,8.1688971 35.3917113,8.21471854 35.3603617,8.26285714 C35.2000238,8.46933415 35.1554391,8.74977518 35.2431702,9 C35.330221,9.23528754 35.5322214,9.40180752 35.7699894,9.43428571 C36.0085327,9.4897258 36.2528384,9.37042844 36.3667979,9.14285714 C36.4216872,9.04183563 36.4513669,8.92780821 36.4530638,8.81142857 C36.4646086,8.69062504 36.4133765,8.57265857 36.3190532,8.50285714 C36.2229421,8.4448344 36.1019244,8.46117522 36.0228191,8.54285714 C35.9320332,8.63138332 35.8949109,8.76537093 35.9262447,8.89142857 C35.9262225,8.91471553 35.9297017,8.93785929 35.9365532,8.96 C35.9433207,8.97870167 35.9491165,8.99777752 35.9539149,9.01714286 C35.8541785,8.92935575 35.7962239,8.79975243 35.7954894,8.66285714 C35.7902911,8.46447247 35.9260987,8.29302591 36.1123404,8.26285714 C36.273199,8.22098038 36.4425166,8.28116638 36.546383,8.41714286 C36.6649218,8.54078464 36.7145519,8.72006291 36.6776809,8.89142857 C36.8219208,8.79466756 36.9254242,8.64331877 36.9668617,8.46857143 C36.992448,8.3792817 37.0086409,8.28730112 37.0151489,8.19428571 C37.0039145,8.10502361 37.0157219,8.01422237 37.0493298,7.93142857 C37.3008122,7.6818573 37.44515,7.33532699 37.4491915,6.97142857 C37.4071499,7.02226727 37.368017,7.07569497 37.332,7.13142857 C37.2951064,7.18857143 37.260383,7.24571429 37.2283723,7.29142857 C37.0761164,7.52659632 36.895366,7.73982616 36.6907021,7.92571429 L36.689617,7.92571429 Z M37.0547553,8.64571429 C36.9912948,8.84353291 36.8614562,9.01015093 36.689617,9.11428571 C36.6369664,9.14242319 36.5901289,9.18126588 36.5518085,9.22857143 C36.5139802,9.2885791 36.4701439,9.34413559 36.4210532,9.39428571 C36.2951697,9.53370787 36.1213745,9.61400872 35.9387234,9.61714286 C35.573957,9.66628883 35.2253345,9.44347018 35.0983085,9.08 C35.0206114,8.90209806 35.0108975,8.69952725 35.0711809,8.51428571 C35.1271837,8.32764968 35.2210427,8.15606822 35.3462553,8.01142857 C35.2942958,7.9880388 35.2437439,7.96132221 35.194883,7.93142857 C35.2176702,7.95428571 35.199766,7.96571429 35.1406277,7.96571429 C35.1080745,7.99428571 35.0771489,8.01714286 35.0473085,8.04 C35.0174681,8.06285714 34.9887128,8.08571429 34.9615851,8.10285714 C34.7576804,8.24147533 34.5111175,8.2925945 34.2725426,8.24571429 C34.658117,8.74857143 35.0473085,9.25142857 35.440117,9.75428571 C35.832383,10.2571429 36.2241064,10.7542857 36.6142021,11.2514286 C36.6559787,11.3142857 36.7004681,11.3771429 36.7487553,11.44 C36.7970426,11.5028571 36.8464149,11.56 36.8968723,11.6171429 C36.9153191,11.6457143 36.9359362,11.6742857 36.9587234,11.7085714 C36.9815106,11.7428571 37.0070106,11.7714286 37.0346809,11.8 C37.0667486,11.8643208 37.1208761,11.9133602 37.1860532,11.9371429 C37.2298753,11.9368218 37.2736362,11.9406467 37.3168085,11.9485714 C37.3813723,11.9542857 37.413383,11.9371429 37.413383,11.8971429 L37.413383,7.72571429 C37.3508528,7.84239761 37.2718196,7.94837382 37.179,8.04 C37.1708052,8.2477928 37.1291598,8.45261024 37.0558404,8.64571429 L37.0547553,8.64571429 Z M37.4817447,6.53714286 C37.1983072,6.6293929 36.9508563,6.81583681 36.7764255,7.06857143 C36.6919977,7.1897993 36.6014415,7.30615777 36.5051489,7.41714286 C36.4099739,7.53105078 36.283497,7.61093573 36.143266,7.64571429 C35.9039127,7.74533597 35.6313036,7.68710616 35.4477128,7.49714286 C35.4015957,7.62285714 35.3674149,7.71428571 35.3440851,7.77142857 C35.3261809,7.8 35.3397447,7.82285714 35.3858617,7.84571429 C35.4346063,7.87583381 35.485172,7.9025577 35.537234,7.92571429 C35.6332781,7.97132901 35.7356975,8.00027454 35.8405213,8.01142857 C36.2160218,8.04165962 36.5799996,7.86691969 36.8046383,7.54857143 C36.9010792,7.43517076 36.9875208,7.31276113 37.0628936,7.18285714 C37.1376879,7.04886422 37.2266949,6.92425552 37.3282021,6.81142857 C37.4806182,6.65498402 37.6919563,6.57938883 37.9033085,6.60571429 C38.1142946,6.61736287 38.323387,6.6537788 38.5267021,6.71428571 C38.5587128,6.73142857 38.5060851,6.70285714 38.3682766,6.63428571 C38.0909606,6.49712479 37.7777237,6.46288528 37.4795745,6.53714286 L37.4817447,6.53714286 Z M34.9816596,6.8 C34.8113709,6.71114459 34.6048446,6.77911891 34.5128936,6.95428571 C34.4585369,7.03777935 34.4409434,7.14187975 34.4646064,7.24 C34.4740489,7.28876313 34.5027726,7.33097824 34.5435805,7.35606792 C34.5843883,7.3811576 34.6334135,7.38674443 34.6783723,7.37142857 C34.7681867,7.38427358 34.8521978,7.32196211 34.8709787,7.22857143 C34.8831889,7.16525714 34.8708839,7.09942893 34.8367979,7.04571429 C34.8367979,7.03428571 34.8460213,7.03428571 34.8644681,7.05142857 C34.8859,7.05884074 34.9047751,7.0727565 34.9187234,7.09142857 C34.9602897,7.13290982 34.9830016,7.19115164 34.981117,7.25142857 C34.9925368,7.35046594 34.9530608,7.44842206 34.8774894,7.50857143 C34.8005741,7.5974062 34.686183,7.63918259 34.5735628,7.61956744 C34.4609426,7.59995228 34.3654112,7.52161351 34.3197447,7.41142857 C34.1710806,7.20573777 34.2079139,6.91223319 34.4022128,6.75428571 C34.5574757,6.58146535 34.7927692,6.51712635 35.0082447,6.58857143 C35.2361604,6.6555249 35.4058766,6.85661726 35.4422872,7.10285714 C35.4504046,7.17476437 35.48206,7.24144475 35.5318085,7.29142857 C35.6168803,7.38239965 35.72843,7.44074056 35.8486596,7.45714286 C36.0639111,7.50998711 36.2877028,7.41661714 36.4102021,7.22285714 C36.530083,7.03225687 36.6649278,6.85257976 36.8133191,6.68571429 C36.9916959,6.49286368 37.2329152,6.37849704 37.4882553,6.36571429 C37.2519566,6.31117196 37.0047667,6.36295112 36.806266,6.50857143 C36.7126866,6.57991983 36.6148226,6.64481725 36.5132872,6.70285714 C36.4115891,6.76319236 36.2904699,6.77563776 36.179617,6.73714286 C36.059678,6.71427251 35.9531914,6.64237894 35.883383,6.53714286 C35.8052553,6.40571429 35.7569681,6.32571429 35.7385213,6.29714286 C35.6620676,6.17848587 35.5292103,6.11458168 35.394,6.13142857 C35.288547,6.15620675 35.1926648,6.21396952 35.1189255,6.29714286 C35.0359149,6.15428571 34.950734,6.00571429 34.8639255,5.84571429 C34.7821152,5.69568148 34.6565352,5.57744589 34.5058404,5.50857143 C34.3251013,5.42243897 34.1167721,5.42876222 33.9410426,5.52571429 C33.764609,5.61560284 33.6321254,5.77939521 33.5759043,5.97714286 C33.5599971,6.01219687 33.5719735,6.05424267 33.6035745,6.07428571 C33.6652085,6.13286695 33.7164634,6.20252213 33.7549468,6.28 C33.8614576,6.47754231 33.8111511,6.72774382 33.6377553,6.86285714 C33.5075901,7.01015171 33.296294,7.03895968 33.1348085,6.93142857 C32.9514255,6.84 32.9074787,6.71428571 33.0040532,6.56 C32.9826211,6.64960826 33.012187,6.74419776 33.0799682,6.80287337 C33.1477495,6.86154898 33.2415845,6.87378284 33.3209043,6.83428571 C33.4320171,6.84919439 33.5404049,6.79064437 33.5937383,6.68690353 C33.6470717,6.58316268 33.6343828,6.45556493 33.5617979,6.36571429 C33.5209162,6.25567491 33.437532,6.16913846 33.3324617,6.12770824 C33.2273914,6.08627802 33.11055,6.09386365 33.0111064,6.14857143 C32.7871602,6.21246771 32.6300485,6.42425503 32.6253511,6.66857143 C32.6147358,6.88810688 32.7063057,7.09933081 32.8707677,7.23467269 C33.0352297,7.37001457 33.2519723,7.41251252 33.4516596,7.34857143 C33.5297872,7.32 33.5710213,7.30285714 33.5759043,7.30285714 C33.5833966,7.3489875 33.6020866,7.39229379 33.6301596,7.42857143 L33.7131702,7.64571429 C33.8347006,7.90099221 34.0762151,8.06868358 34.3468723,8.08571429 C34.5710929,8.10666092 34.7937145,8.0302931 34.9632128,7.87428571 C35.1482332,7.73173765 35.2570163,7.50429289 35.2556489,7.26285714 C35.2688098,7.06210976 35.1577656,6.87525998 34.9805745,6.8 L34.9816596,6.8 Z M31.323766,11.4628571 C31.1595058,11.4573641 30.9989117,11.4103261 30.8555426,11.3257143 C30.6546964,11.2012347 30.5237896,10.9817448 30.5045106,10.7371429 C30.4630221,10.4612863 30.4448657,10.1820954 30.4502553,9.90285714 L30.4502553,3.32571429 C30.6477447,3.58857143 30.8463191,3.84571429 31.0470638,4.10285714 C31.2478085,4.36 31.4480106,4.61142857 31.6498404,4.86857143 C31.7464149,4.99428571 31.8402766,5.11428571 31.9325106,5.23428571 C31.9591448,5.26335662 31.9843175,5.29387447 32.0079255,5.32571429 C32.0349374,5.31259081 32.0626549,5.30114269 32.0909362,5.29142857 C32.1581111,5.27255406 32.2276723,5.26484213 32.2971064,5.26857143 C32.4183841,5.28898054 32.5305301,5.34893715 32.6177553,5.44 C32.7120399,5.5242593 32.7577077,5.6542547 32.7382021,5.78285714 C32.9681898,5.71162598 33.2125204,5.70964649 33.4435213,5.77714286 C33.4753746,5.77459613 33.5026032,5.75201523 33.5124255,5.72 C33.5433708,5.66471449 33.5797403,5.61300261 33.6209362,5.56571429 C33.6907297,5.48450172 33.7749684,5.41849409 33.868883,5.37142857 L32.6980532,3.86285714 L31.5272234,2.35428571 C31.4306489,2.22857143 31.3329894,2.10285714 31.2342447,1.97714286 C31.1355,1.85142857 31.0378404,1.72 30.941266,1.58857143 C30.8956915,1.53142857 30.8484894,1.47428571 30.8002021,1.41142857 C30.7519149,1.34857143 30.7047128,1.29142857 30.6591383,1.22857143 C30.6130568,1.14130548 30.5321846,1.08046523 30.4388617,1.06285714 L27.9317234,1.06285714 C27.8833979,1.05843348 27.8347377,1.06035296 27.7868617,1.06857143 L27.7868617,1.25142857 C27.7868617,1.32 27.8004255,1.35428571 27.8280957,1.35428571 C27.8823511,1.35428571 27.9366064,1.36 27.9935745,1.36 C28.0505426,1.36 28.1020851,1.36 28.1590532,1.36571429 C28.4313619,1.40301331 28.6949778,1.49207685 28.9370745,1.62857143 C29.1703953,1.78711454 29.3813504,1.97948029 29.5637234,2.2 C29.5956487,2.24422067 29.6302639,2.28621359 29.6673511,2.32571429 C29.7037021,2.36 29.7405957,2.40571429 29.7758617,2.44571429 L29.7894255,2.47428571 L29.7894255,9.78857143 C29.7915928,10.0556894 29.7801828,10.3227381 29.7552447,10.5885714 C29.7388984,10.8438735 29.6275719,11.0820727 29.4454468,11.2514286 C29.2227197,11.4123607 28.9555214,11.490756 28.6858723,11.4742857 C28.6582021,11.4742857 28.595266,11.4685714 28.4965213,11.4628571 C28.3977766,11.4571429 28.3484043,11.4742857 28.3484043,11.5028571 C28.3484043,11.5142857 28.3473191,11.56 28.3451489,11.64 C28.3333175,11.6806271 28.3394957,11.7247063 28.3619681,11.76 L31.8820532,11.76 C31.8898446,11.7109272 31.8920304,11.6610486 31.8885638,11.6114286 L31.8885638,11.5085714 C31.8767521,11.4808249 31.8475109,11.4662749 31.8196596,11.4742857 C31.6558085,11.4742857 31.4903298,11.4685714 31.3248511,11.4628571 L31.323766,11.4628571 Z M33.1836383,5.90857143 L33.2595957,5.90857143 C33.0444688,5.8649793 32.8216317,5.90561943 32.6329468,6.02285714 C32.5497553,6.08 32.4613191,6.13714286 32.3676383,6.19428571 C32.2745535,6.24975619 32.1578211,6.23342574 32.0817128,6.15428571 C32.0003735,6.09024235 31.9560875,5.98659129 31.9645213,5.88 C31.9554519,5.77325407 32.0145202,5.67306241 32.109383,5.63428571 C32.1849271,5.60015168 32.2700768,5.59810416 32.3470213,5.62857143 C32.3888932,5.63232402 32.4256522,5.65940213 32.4433618,5.69953971 C32.4610714,5.73967728 32.4570205,5.78672934 32.4327447,5.82285714 C32.4190002,5.77307284 32.3846019,5.73251438 32.3391779,5.71253413 C32.2937538,5.69255388 32.2421845,5.69529858 32.1989043,5.72 C32.1514014,5.7362377 32.115026,5.77684557 32.1023972,5.8277361 C32.0897684,5.87862663 32.1026264,5.93278716 32.1365106,5.97142857 C32.2146383,6.12 32.3236915,6.11428571 32.4620426,5.96 C32.527907,5.91230368 32.5675684,5.83379263 32.5683245,5.74961139 C32.5690806,5.66543014 32.5308364,5.58614293 32.4658404,5.53714286 C32.3550156,5.42965828 32.1913146,5.40894105 32.0594681,5.48571429 C31.9232961,5.54054992 31.8189144,5.65871634 31.7767979,5.80571429 C31.7356778,5.95020403 31.7492894,6.10585193 31.8147766,6.24 C31.8719361,6.38621716 32.0296952,6.45735394 32.1696064,6.4 C32.0659554,6.46322452 31.9407268,6.47372559 31.828883,6.42857143 C31.7111564,6.38703996 31.6413256,6.25955791 31.666117,6.13142857 C31.5869824,6.1880257 31.5556591,6.29482908 31.5907021,6.38857143 C31.6158045,6.47720844 31.6692973,6.55394353 31.7420745,6.60571429 C31.8151702,6.67357885 31.9111332,6.70758431 32.0083126,6.70005847 C32.105492,6.69253264 32.1957003,6.64410956 32.2585851,6.56571429 C32.3137208,6.51230253 32.3633665,6.45292793 32.4067021,6.38857143 C32.4497322,6.32047468 32.4993717,6.2572774 32.5548191,6.2 C32.7073631,6.04078803 32.9062695,5.94016728 33.119617,5.91428571 C33.1414619,5.91532266 33.1633428,5.91340221 33.1847234,5.90857143 L33.1836383,5.90857143 Z M44.0466383,5.16 C44.2763191,4.59428571 44.506,4.02857143 44.7356809,3.46285714 C45.0384255,4.24 45.3449681,5.01714286 45.6553085,5.79428571 C45.9651064,6.57142857 46.2716489,7.34857143 46.5743936,8.12 C46.9878846,7.72511997 47.6059954,7.68477317 48.062617,8.02285714 C47.6122979,6.89142857 47.1608936,5.76 46.706234,4.61714286 C46.2515745,3.47428571 45.8001702,2.34285714 45.3460532,1.2 C45.3408913,1.17846799 45.333994,1.15743929 45.3254362,1.13714286 C45.3156702,1.11428571 45.3069894,1.09142857 45.297766,1.06857143 C45.2853285,1.03362347 45.2606784,1.00500402 45.2288617,0.988571429 C45.1926027,0.987175448 45.156297,0.989087344 45.1203511,0.994285714 L45.0422234,0.994285714 C45.0276972,1.03395786 45.0067725,1.07068852 44.9803723,1.10285714 C44.9527021,1.17714286 44.926117,1.25142857 44.8941064,1.32 C44.8620957,1.38857143 44.8355106,1.46285714 44.808383,1.53142857 C44.6884787,1.82857143 44.5707447,2.12 44.4535532,2.41714286 C44.3363617,2.71428571 44.2159149,3 44.0916702,3.28571429 C43.8529468,3.88571429 43.6142234,4.47428571 43.3755,5.06857143 C43.1367766,5.66285714 42.895883,6.24 42.6522766,6.82285714 C42.8807544,6.72760106 43.1367398,6.73797065 43.3575957,6.85142857 C43.5865532,6.29142857 43.8182234,5.72571429 44.0477234,5.16 L44.0466383,5.16 Z M50.3733511,11.6285714 C50.0472053,11.594412 49.7408987,11.4477718 49.5020106,11.2114286 C49.3234727,11.0167397 49.1789297,10.7904172 49.0750213,10.5428571 C48.9665106,10.2857143 48.8630638,10.0342857 48.7646809,9.78857143 C48.7104255,9.64571429 48.6523723,9.49714286 48.5926915,9.35428571 C48.5330106,9.21142857 48.4755,9.06285714 48.4207021,8.92 C48.408109,8.8841577 48.3865508,8.8525673 48.3583085,8.82857143 C48.3219574,8.81142857 48.266617,8.78857143 48.1955426,8.76 C48.0721414,8.69861219 47.9453118,8.64518035 47.8157553,8.6 C47.5797056,8.49495065 47.3129819,8.49701775 47.0784255,8.60571429 C47.0051809,8.65714286 46.9476702,8.69142857 46.9064362,8.72 C46.878766,8.74857143 46.8581489,8.76571429 46.8440426,8.78285714 C46.868591,8.83550809 46.8868164,8.8911748 46.8982979,8.94857143 C47.0133191,9.24 47.1315957,9.52571429 47.2531277,9.81142857 C47.3734459,10.0931078 47.4691499,10.3857457 47.5390532,10.6857143 C47.6344037,10.9343979 47.5771152,11.2191366 47.3941915,11.4057143 C47.1854385,11.5631862 46.9347906,11.6471824 46.6780213,11.6457143 C46.6365451,11.6419961 46.5947871,11.6439167 46.5537766,11.6514286 C46.5421149,11.6761909 46.5374091,11.7039456 46.5402128,11.7314286 C46.5371491,11.8019898 46.5395079,11.8726964 46.547266,11.9428571 L50.5008511,11.9428571 C50.5464255,11.9428571 50.5670426,11.9028571 50.5627021,11.8285714 C50.5583617,11.7542857 50.5556489,11.6971429 50.5556489,11.6685714 C50.4984378,11.6424579 50.4367883,11.6288497 50.3744362,11.6285714 L50.3733511,11.6285714 Z M47.8971383,8.41714286 C48.0392872,8.47428571 48.179266,8.53142857 48.3170745,8.59428571 C48.4533975,8.6539612 48.5972297,8.69245858 48.7440638,8.70857143 C48.9076939,8.71309644 49.0708453,8.6879688 49.2263936,8.63428571 C48.9575621,8.6383835 48.6906576,8.58593045 48.4413191,8.48 C48.2886458,8.4054892 48.1412366,8.31955497 48.0002234,8.22285714 C47.7836832,8.06225488 47.5202395,7.98737387 47.256383,8.01142857 C46.9966946,8.07267973 46.7568393,8.20470457 46.5608298,8.39428571 C46.5011489,8.44571429 46.440383,8.49142857 46.3785319,8.54285714 C46.3164614,8.590385 46.25077,8.63243267 46.1821277,8.66857143 C45.9464914,8.81768631 45.6783515,8.90034308 45.4035638,8.90857143 C45.1515774,8.93541946 44.8976517,8.88375944 44.6732872,8.76 C44.6286527,8.73966105 44.5869995,8.71272331 44.5495851,8.68 C44.5157906,8.64304084 44.4669007,8.62594811 44.4188298,8.63428571 C44.310491,8.67362924 44.1948432,8.68537869 44.0813617,8.66857143 C43.8697662,8.60936245 43.7192193,8.41224742 43.70965,8.18187968 C43.7000807,7.95151194 43.8337077,7.74130262 44.0395851,7.66285714 C44.1452947,7.63424128 44.2576275,7.65963905 44.3428723,7.73142857 C44.4362306,7.79793839 44.4781131,7.9203421 44.4465,8.03428571 C44.4393102,8.08223847 44.4206377,8.12747092 44.3922447,8.16571429 C44.3580638,8.22857143 44.3200851,8.24571429 44.2788511,8.21714286 C44.3016383,8.24 44.3016383,8.18857143 44.2788511,8.06857143 C44.2695857,8.01193951 44.2319054,7.96504522 44.1804078,7.94605584 C44.1289101,7.92706646 44.0716859,7.93896539 44.0309043,7.97714286 C43.9761354,8.00063994 43.9364301,8.05180349 43.9254654,8.11300934 C43.9145006,8.1742152 43.933775,8.23709925 43.9766489,8.28 C44.0346732,8.37762675 44.1476548,8.42213263 44.252266,8.38857143 C44.3569671,8.36819668 44.4523387,8.31194613 44.5235426,8.22857143 C44.6762389,8.04341344 44.6703674,7.76636898 44.5099787,7.58857143 C44.3767821,7.37459445 44.1368277,7.2627692 43.8968936,7.30285714 C43.8262974,7.30782918 43.7567137,7.32321752 43.6901809,7.34857143 C43.625617,7.38285714 43.589266,7.38857143 43.5816702,7.37142857 C43.5073756,7.25705286 43.4192874,7.15332765 43.319617,7.06285714 C43.1632034,6.95736031 42.9711367,6.92819406 42.7927979,6.98285714 C42.6091305,7.01862202 42.4522653,7.14359144 42.3696064,7.32 C42.3570894,7.38397 42.3284106,7.44319572 42.2865957,7.49142857 C42.2416098,7.4990252 42.1976904,7.5124608 42.1558404,7.53142857 C42.0002807,7.58034864 41.8993429,7.73837669 41.9149468,7.90857143 C41.9149468,8.14857143 42.0044681,8.25142857 42.1862234,8.22857143 C42.292573,8.19306973 42.3878139,8.12790785 42.4618404,8.04 C42.6051867,8.45710385 42.879736,8.80998537 43.2398617,9.04 C43.6692466,9.263439 44.1462974,9.36581707 44.6244574,9.33714286 C45.1507144,9.34676335 45.6718931,9.22743369 46.1468617,8.98857143 C46.2613478,8.93237584 46.3717804,8.8674409 46.4772766,8.79428571 C46.5830745,8.72 46.6883298,8.65142857 46.7941277,8.57714286 C46.9822453,8.4173282 47.2140348,8.32520534 47.4555,8.31428571 C47.6070486,8.32563969 47.7562036,8.36029261 47.8982234,8.41714286 L47.8971383,8.41714286 Z M41.9805957,9.67428571 C41.7626191,9.5752888 41.6521035,9.31772881 41.7255957,9.08 C41.7595094,8.9092329 41.8919953,8.77956038 42.0561804,8.75643543 C42.2203655,8.73331047 42.380547,8.82176172 42.4558723,8.97714286 C42.4702091,8.99422588 42.4772287,9.01677612 42.475278,9.03948321 C42.4733274,9.0621903 42.4625789,9.0830474 42.4455638,9.09714286 C42.4049327,9.11903645 42.3551438,9.10405395 42.3316277,9.06285714 L42.3245745,9.04571429 C42.3250351,9.05209959 42.327519,9.0581368 42.3316277,9.06285714 C42.3093056,9.05810924 42.2882126,9.04836556 42.2697766,9.03428571 C42.2429226,9.01644728 42.2119938,9.00657612 42.1802553,9.00571429 C42.0603978,9.00571429 41.963234,9.1080492 41.963234,9.23428571 C41.963234,9.36052223 42.0603978,9.46285714 42.1802553,9.46285714 C42.2931224,9.46557702 42.4022639,9.42025614 42.483,9.33714286 C42.5740302,9.27894201 42.6348908,9.18019561 42.6483073,9.06893164 C42.6617238,8.95766767 42.6262314,8.84603318 42.5519043,8.76571429 C42.4482102,8.59217873 42.2646748,8.48986724 42.070117,8.49714286 C41.8240983,8.51193999 41.6120099,8.68446621 41.5362447,8.93142857 C41.4425201,9.16208594 41.4363067,9.42180684 41.518883,9.65714286 C41.5410457,9.74539896 41.5924215,9.82240965 41.6637447,9.87428571 C41.7462128,9.94285714 41.7917872,9.96 41.8015532,9.92571429 C41.8015532,10 41.7369894,10.0228571 41.6084043,10.0057143 C41.4907157,9.9896781 41.3853166,9.92094855 41.3192234,9.81714286 C41.2538863,9.70216315 41.2294655,9.56647258 41.2503191,9.43428571 C41.1222881,9.51872578 41.0754585,9.69135242 41.1418085,9.83428571 C41.1800373,9.98029881 41.2579158,10.1113773 41.365883,10.2114286 C41.474186,10.3162281 41.6184292,10.3698955 41.7652021,10.36 C41.8817072,10.336702 41.9880253,10.2746041 42.0684894,10.1828571 C42.2838905,9.99907315 42.5209651,9.84541652 42.7738085,9.72571429 C43.0257289,9.60189828 43.2984772,9.53197593 43.5762447,9.52 C43.4185731,9.46464811 43.254071,9.43384685 43.0879468,9.42857143 C42.919141,9.4140305 42.7508671,9.46258659 42.6126702,9.56571429 C42.4409911,9.73197491 42.1918298,9.77466343 41.9789681,9.67428571 L41.9805957,9.67428571 Z M42.0972447,11.4628571 C41.9671268,11.4049123 41.8651863,11.293417 41.815117,11.1542857 C41.7729075,10.9518681 41.7897383,10.7407421 41.8634043,10.5485714 C41.6241464,10.6040596 41.3749233,10.5213522 41.2090851,10.3314286 C41.0892135,10.5969563 40.9510352,10.8528792 40.7956596,11.0971429 C40.6489274,11.3221398 40.4320094,11.4859051 40.1825745,11.56 C40.0691308,11.5929488 39.9541346,11.6196517 39.8380532,11.64 C39.8129083,11.6429989 39.7902107,11.6572669 39.7757687,11.6791527 C39.7613266,11.7010385 39.7565417,11.7284183 39.7626383,11.7542857 L39.7626383,11.9371429 C39.7822868,11.9453519 39.803784,11.947338 39.8244894,11.9428571 L42.951766,11.9428571 C42.9836945,11.9079844 42.9941943,11.8571149 42.9788936,11.8114286 C42.9717303,11.7622119 42.9672018,11.7126097 42.9653298,11.6628571 C42.900093,11.6441312 42.833176,11.6326402 42.7656702,11.6285714 C42.6916704,11.6248524 42.618039,11.6153018 42.5453936,11.6 C42.3894131,11.5829477 42.2376149,11.5364943 42.0972447,11.4628571 Z" id="CHINA_"></path>
                        </g>
                        <text id="EXPLORE" font-family="Helvetica" font-size="8" font-weight="normal">
                            <tspan x="5.60351562" y="8">EXPLORE </tspan>
                        </text>
                    </g>
                </g>
            </g>
        </g>
    </g>
</svg>