<svg class="icon" width="64" height="48.55" viewBox="0 0 1350 1024" xmlns="http://www.w3.org/2000/svg"><path d="M193.23 0v222.77h87.385v204.307h-87.384c0 40.615 6.154 68.923 19.692 84.923 12.308 16 36.923 23.385 71.385 23.385v204.307c-9.846 0-17.231 1.231-22.154 1.231-44.308 0-84.923-11.077-124.308-30.77-39.384-20.922-70.154-48-93.538-82.46C14.769 582.152 0 523.076 0 449.23V0h193.23zm355.693 0v241.23c33.23-23.384 65.23-35.692 98.462-35.692 49.23 0 88.615 18.462 118.153 54.154 29.539 35.693 44.308 84.923 44.308 145.231v327.385H615.385V459.077c0-22.154-2.462-36.923-7.385-44.308-4.923-7.384-13.538-11.077-27.077-11.077-22.154 0-33.23 16-33.23 48v280.616H354.461V0h194.461z" fill="#F05132"/><path d="M1284.923 553.846h-368l-19.692-54.154c-3.693-9.846-9.846-19.692-17.231-27.077-12.308-14.769-30.77-23.384-50.462-23.384H715.077c-36.923 0-66.462 29.538-66.462 66.461s29.539 66.462 66.462 66.462h48l94.77 264.615c2.46 8.616 7.384 16 12.307 22.154-16 16-24.616 39.385-24.616 62.77 0 51.692 41.847 92.307 92.308 92.307 51.692 0 92.308-41.846 92.308-92.308 0-12.307-2.462-23.384-6.154-34.461h70.154c-3.692 11.077-6.154 22.154-6.154 34.461 0 51.693 41.846 92.308 92.308 92.308 51.692 0 92.307-41.846 92.307-92.308 0-20.923-7.384-39.384-18.461-55.384 8.615-8.616 16-18.462 19.692-30.77l71.385-200.615c2.461-6.154 3.692-11.077 3.692-17.23v-7.385c1.23-36.923-28.308-66.462-64-66.462z" fill="#FFF"/><path d="M1308.308 620.308c0-13.539-11.077-23.385-23.385-23.385H887.385l-29.539-81.23c-2.461-4.924-4.923-9.847-8.615-13.54-4.923-6.153-11.077-9.845-19.693-9.845H715.077c-13.539 0-23.385 11.077-23.385 23.384 0 13.539 11.077 23.385 23.385 23.385h76.308L896 830.769c6.154 16 20.923 24.616 36.923 23.385h264.615c16 2.461 32-7.385 38.154-23.385l71.385-200.615c1.23-2.462 1.23-4.923 1.23-8.616v-1.23zm-81.231 23.384l-18.462 52.923H923.077l-18.462-52.923h322.462zm-56.615 162.462h-208l-22.154-62.77h252.307l-22.153 62.77zm-40.616 124.308a50.462 50.462 0 1 0 100.923 0 50.462 50.462 0 1 0-100.923 0zm-243.692 0a50.462 50.462 0 1 0 100.923 0 50.462 50.462 0 1 0-100.923 0zM0 808.615h70.154L97.23 913.231l27.077-104.616h70.154v172.308h-43.077V849.231l-34.462 131.692H77.538L43.077 849.231v131.692H0V808.615zm345.846 144h-60.308l-8.615 28.308H222.77L288 808.615h56.615l65.231 172.308h-55.384l-8.616-28.308zm-11.077-36.923l-18.461-61.538-18.462 61.538h36.923zm104.616 65.231V808.615H528c16 0 29.538 1.231 38.154 3.693 8.615 2.461 16 8.615 20.923 16 4.923 7.384 7.385 17.23 7.385 28.307 0 9.847-2.462 17.231-6.154 24.616-3.693 7.384-9.846 12.307-17.231 17.23-4.923 2.462-11.077 4.924-18.462 7.385 6.154 2.462 11.077 3.692 13.539 6.154 2.461 1.23 4.923 4.923 8.615 8.615 3.693 4.923 6.154 8.616 7.385 11.077L608 982.154h-60.308l-28.307-52.923c-3.693-7.385-7.385-11.077-9.847-13.539C505.846 913.231 500.923 912 496 912h-4.923v70.154h-51.692zm54.153-102.154h22.154c2.462 0 7.385-1.23 13.539-2.461 3.692-1.231 6.154-2.462 8.615-4.923 2.462-2.462 3.692-6.154 3.692-9.847 0-6.153-1.23-9.846-4.923-12.307-3.692-2.462-9.846-4.923-19.692-4.923h-23.385v34.461zM624 808.615h161.23v43.077h-54.153v129.231h-52.923v-129.23H624v-43.078z"/></svg>